<svg height="391" viewBox="-70.5 -70.5 391 391" width="391" xmlns="http://www.w3.org/2000/svg" xmlns:xlink="http://www.w3.org/1999/xlink">
<defs>
	<pattern height="50" id="grid" patternUnits="userSpaceOnUse" width="50">
		<rect fill="#000" height="1" opacity="1.0" width="50" x="0" y="0"/>
		<rect fill="#000" height="50" opacity="1.0" width="1" x="0" y="0"/>
	</pattern>
</defs>
<rect fill="#fff" height="390" stroke="#000" width="390" x="-70" y="-70"/>
<rect fill="url(#grid)" height="250" stroke="#000" stroke-width="2" width="250" x="0" y="0"/>
<text font-family="Granada,Times New Roman,serif" font-size="16" text-anchor="middle" x="0" y="0">
<tspan font-size="1.2em" font-weight="bold" x="125" y="-40">x</tspan>
<tspan x="0" y="-10">0</tspan>
<tspan x="50" y="-10">50</tspan>
<tspan x="100" y="-10">100</tspan>
<tspan x="150" y="-10">150</tspan>
<tspan x="200" y="-10">200</tspan>
<tspan x="250" y="-10">250</tspan>
</text>
<text font-family="Granada,Times New Roman,serif" font-size="16" text-anchor="middle" x="0" y="0">
<tspan font-size="1.2em" font-weight="bold" x="-50" y="125">y</tspan>
<tspan dy="6" x="-20" y="0">0</tspan>
<tspan dy="6" x="-20" y="50">50</tspan>
<tspan dy="6" x="-20" y="100">100</tspan>
<tspan dy="6" x="-20" y="150">150</tspan>
<tspan dy="6" x="-20" y="200">200</tspan>
<tspan dy="6" x="-20" y="250">250</tspan>
</text>
<g opacity="0.8">
	<rect fill="lime" height="200" stroke="pink" stroke-width="4" width="200" x="25" y="25"/>
	<circle cx="125" cy="125" fill="orange" r="75"/>
	<polyline fill="none" points="50,150 50,200 200,200 200,100" stroke="red" stroke-width="4"/>
	<line stroke="blue" stroke-width="4" x1="50" x2="200" y1="50" y2="200"/>
</g>
</svg>